<svg xmlns="http://www.w3.org/2000/svg" viewBox="0 0 900 480" preserveAspectRatio="xMidYMid slice" role="img" aria-label="Coupe et coiffage">
  <rect width="900" height="480" fill="#E7EBF0"/>
  <g transform="translate(360,150) scale(1.5)" stroke="#14263F" stroke-width="5" fill="none" stroke-linecap="round">
    <circle cx="0" cy="24" r="17"/><circle cx="0" cy="70" r="17"/>
    <path d="M12 34 L104 -18 M12 60 L104 112"/>
  </g>
  <g stroke="#B98A5E" stroke-width="5" fill="none" stroke-linecap="round">
    <path d="M120 340 q70 -46 140 0 t140 0 t140 0"/>
  </g>
  <rect x="120" y="298" width="150" height="10" rx="5" fill="#14263F"/>
  <g stroke="#14263F" stroke-width="4">
    <path d="M132 298 v-22 M148 298 v-22 M164 298 v-22 M180 298 v-22 M196 298 v-22 M212 298 v-22 M228 298 v-22 M244 298 v-22 M260 298 v-22"/>
  </g>
</svg>
